<svg width="20" height="18" viewBox="0 0 20 18" fill="none" xmlns="http://www.w3.org/2000/svg">
<path d="M20 6.45001L10.85 0.260015C10.6009 0.0901922 10.3065 -0.000640869 10.005 -0.000640869C9.70354 -0.000640869 9.40907 0.0901922 9.16 0.260015L0 6.45001L1.06 8.00001L2 7.37001V17C2 17.2652 2.10536 17.5196 2.29289 17.7071C2.48043 17.8947 2.73478 18 3 18H9V13H11V18H17C17.2652 18 17.5196 17.8947 17.7071 17.7071C17.8946 17.5196 18 17.2652 18 17V7.37001L18.94 8.00001L20 6.45001ZM16 16H13V12C13 11.7348 12.8946 11.4804 12.7071 11.2929C12.5196 11.1054 12.2652 11 12 11H8C7.73478 11 7.48043 11.1054 7.29289 11.2929C7.10536 11.4804 7 11.7348 7 12V16H4V5.89001L10 1.89001L16 5.89001V16Z" fill="#C9D1D7"/>
</svg>
