<svg width="23" height="19" viewBox="0 0 23 19" fill="none" xmlns="http://www.w3.org/2000/svg">
<path d="M20.74 12.2L19 11.54V10.86L19.25 10.45C19.7396 9.66007 19.9993 8.74933 20 7.82V7C20 6.20435 19.6839 5.44129 19.1213 4.87868C18.5587 4.31607 17.7956 4 17 4C16.2044 4 15.4413 4.31607 14.8787 4.87868C14.3161 5.44129 14 6.20435 14 7V7.82C14.0007 8.74933 14.2604 9.66007 14.75 10.45L15 10.86V11.54L14 11.91C13.8145 11.8012 13.6205 11.7076 13.42 11.63L10.97 10.63V8.83C11.6294 7.66003 11.9836 6.34288 12 5V4C12 2.93913 11.5786 1.92172 10.8284 1.17157C10.0783 0.421427 9.06087 0 8 0C6.93913 0 5.92172 0.421427 5.17157 1.17157C4.42143 1.92172 4 2.93913 4 4V5C4.00219 6.35045 4.34621 7.67836 5 8.86V10.7L2.55 11.7C1.8111 11.9872 1.17422 12.4875 0.720198 13.1374C0.266179 13.7873 0.0155049 14.5574 0 15.35L0 18C0 18.2652 0.105357 18.5196 0.292893 18.7071C0.48043 18.8946 0.734784 19 1 19H22C22.2652 19 22.5196 18.8946 22.7071 18.7071C22.8946 18.5196 23 18.2652 23 18V15.47C22.9994 14.76 22.7829 14.0671 22.3793 13.483C21.9756 12.899 21.4039 12.4515 20.74 12.2ZM16 6.75C16 6.48478 16.1054 6.23043 16.2929 6.04289C16.4804 5.85536 16.7348 5.75 17 5.75C17.2652 5.75 17.5196 5.85536 17.7071 6.04289C17.8946 6.23043 18 6.48478 18 6.75V8.19C17.9998 8.70109 17.869 9.20365 17.62 9.65L17.29 10.25C17.2684 10.2895 17.2366 10.3224 17.1979 10.3452C17.1591 10.3681 17.115 10.3801 17.07 10.38H16.93C16.885 10.3801 16.8409 10.3681 16.8021 10.3452C16.7634 10.3224 16.7316 10.2895 16.71 10.25L16.38 9.65C16.131 9.20365 16.0002 8.70109 16 8.19V6.75ZM6 3.85C6 3.31957 6.21071 2.81086 6.58579 2.43579C6.96086 2.06071 7.46957 1.85 8 1.85C8.53043 1.85 9.03914 2.06071 9.41421 2.43579C9.78929 2.81086 10 3.31957 10 3.85V5.28C9.9998 6.26738 9.75592 7.23946 9.29 8.11L9 8.72C8.91498 8.87968 8.78823 9.0133 8.63326 9.10664C8.47829 9.19997 8.3009 9.24952 8.12 9.25H7.92C7.73236 9.25694 7.54655 9.21091 7.38385 9.11718C7.22115 9.02345 7.08812 8.88581 7 8.72L6.67 8.11C6.21797 7.23588 5.98788 6.264 6 5.28V3.85ZM14 17H2V15.25C1.99961 14.8494 2.11951 14.458 2.34416 14.1264C2.56881 13.7947 2.88787 13.5382 3.26 13.39L7 11.92V10.92C7.32067 11.0364 7.65886 11.0973 8 11.1C8.34114 11.0973 8.67933 11.0364 9 10.92V11.92L12.72 13.34C13.0975 13.4857 13.4219 13.7424 13.6504 14.0762C13.8789 14.4101 14.0008 14.8054 14 15.21V17ZM21 17H16V15.35C15.9957 14.6466 15.806 13.9567 15.45 13.35L16.5 12.95V12.07C16.6313 12.1001 16.7653 12.1168 16.9 12.12H17.1C17.2347 12.1168 17.3687 12.1001 17.5 12.07V12.95L20.03 13.95C20.3202 14.0526 20.5718 14.2419 20.7507 14.4924C20.9296 14.7428 21.0271 15.0422 21.03 15.35V17H21Z" fill="#C9D1D7"/>
</svg>
