<svg width="19" height="20" viewBox="0 0 19 20" fill="none" xmlns="http://www.w3.org/2000/svg">
<path d="M17.9401 16L16.0001 11.49C16.0001 11.49 15.5901 8.43 15.2001 5.43C14.9991 3.92771 14.2599 2.54935 13.1197 1.55075C11.9795 0.552155 10.5157 0.00114703 9.00007 1.24009e-06C7.48117 -0.000954329 6.01373 0.550365 4.87121 1.55122C3.72869 2.55207 2.98903 3.93419 2.79007 5.44L2.00007 11.49L0.0600666 16C0.0212573 16.0883 0.000842206 16.1836 6.66746e-05 16.28C-0.00125784 16.3793 0.0171636 16.4779 0.0542611 16.5701C0.0913587 16.6622 0.146393 16.7461 0.21617 16.8168C0.285946 16.8875 0.369073 16.9437 0.460725 16.982C0.552378 17.0203 0.650728 17.04 0.750067 17.04H7.00007C7.00007 17.5704 7.21078 18.0791 7.58585 18.4542C7.96093 18.8293 8.46963 19.04 9.00007 19.04C9.5305 19.04 10.0392 18.8293 10.4143 18.4542C10.7894 18.0791 11.0001 17.5704 11.0001 17.04H17.2701C17.3928 17.0389 17.5133 17.0074 17.6207 16.9482C17.7282 16.8889 17.8193 16.8039 17.8857 16.7008C17.9522 16.5976 17.9919 16.4796 18.0014 16.3573C18.0109 16.2349 17.9898 16.1122 17.9401 16ZM9.00007 1.75C10.0636 1.75037 11.0909 2.13684 11.891 2.8376C12.6911 3.53836 13.2095 4.50575 13.3501 5.56C13.6301 7.66 13.9101 9.91 14.0501 11H4.00007L4.65007 5.56C4.79058 4.50575 5.30906 3.53836 6.10914 2.8376C6.90922 2.13684 7.93649 1.75037 9.00007 1.75ZM2.52007 15L3.82007 12H14.1801L15.4801 15H2.48007H2.52007Z" fill="#C9D1D7"/>
</svg>
